<?xml version="1.0" encoding="UTF-8"?>
<svg width="70px" height="70px" viewBox="0 0 70 70" version="1.1" xmlns="http://www.w3.org/2000/svg" xmlns:xlink="http://www.w3.org/1999/xlink">
    <title>ic/certification</title>
    <g id="ic/certification" stroke="none" stroke-width="1" fill="none" fill-rule="evenodd">
        <g transform="translate(0.000000, 4.000000)" fill-rule="nonzero" id="picto-fiche5">
            <g>
                <path d="M52.2668646,46.8761407 C44.7595563,59.9776429 28.3643972,64.7891982 15.0692026,57.7926928 C1.77400789,50.7961873 -3.7069615,34.4724688 2.63387049,20.7571163 C8.97470248,7.04176384 24.8889794,0.798019584 38.7404977,6.59118548 L37.6945973,0.617441263 L41.2176302,0 L43.0922996,10.7280419 L33.7464762,16.1676995 L31.9696688,13.0403595 L37.3276147,9.90993227 C25.9933723,5.21061588 12.9628311,9.68588629 6.81912813,20.3879105 C0.861952348,30.7667917 3.15353784,43.9660121 12.25211,51.6811463 C21.3506822,59.3962805 34.625133,59.3962805 43.7237052,51.6811463 C52.8222774,43.9660121 55.1138628,30.7667917 49.1566871,20.3879105 L52.25769,18.584982 C57.2441589,27.3427488 57.2476522,38.1150799 52.2668646,46.8761407 Z" id="Path" fill="#000000"></path>
                <path d="M27.5015464,50 L24.328245,46.744186 C22.2652898,44.6263566 18.4053677,43.0511628 14.72174,42.8186047 L12,42.648062 L12,20.0124031 L15.1238152,20.2542636 C18.307286,20.5249501 21.3909837,21.5014562 24.1519505,23.1131783 C25.4165698,23.8486705 26.5488772,24.7920463 27.5015464,25.903876 C28.4542157,24.7920463 29.5865231,23.8486705 30.8511424,23.1131783 C33.6092233,21.4979836 36.6907733,20.5172522 39.8730919,20.2418605 L43,20 L43,42.6356589 L40.2751671,42.8062016 C36.5915395,43.0387597 32.7316173,44.6139535 30.6686621,46.7317829 L27.5015464,50 Z M29.310885,30.4868217 L29.310885,43.1131783 C31.9150953,41.0635659 35.6543949,39.6155039 39.3875087,39.2527132 L39.3875087,23.9379845 C37.0335098,24.2425865 34.7641259,25.0164403 32.71306,26.2139535 C30.5511324,27.5131783 29.310885,29.0697674 29.310885,30.4868217 Z M15.6155842,39.2651163 C19.348698,39.627907 23.0879976,41.075969 25.6922079,43.1255814 L25.6922079,30.4868217 C25.6922079,29.0697674 24.4550534,27.5131783 22.2900329,26.2139535 C20.238967,25.0164403 17.9695831,24.2425865 15.6155842,23.9379845 L15.6155842,39.2651163 Z" id="Shape" fill="#CE0033"></path>
            </g>
        </g>
    </g>
</svg>