<?xml version="1.0" encoding="UTF-8"?>
<svg width="70px" height="70px" viewBox="0 0 70 70" version="1.1" xmlns="http://www.w3.org/2000/svg" xmlns:xlink="http://www.w3.org/1999/xlink">
    <title>ic/competence</title>
    <g id="ic/competence" stroke="none" stroke-width="1" fill="none" fill-rule="evenodd">
        <g>
            <rect id="Rectangle" x="0" y="0" width="70" height="70"></rect>
            <g id="picto-fiche3" transform="translate(0.000000, 15.000000)" fill-rule="nonzero">
                <path d="M29,9.48415393 C19.5239228,11.6513865 12.0717683,18.8266836 9.76147174,28 C8.93277493,27.6280258 8.03606156,27.436232 7.12940683,27.4370402 C6.75068695,27.4358399 6.37264937,27.4696058 6,27.5379174 C7.86947398,19.5100453 13.1368215,12.7675439 20.2511192,8.80730051 L13.3684947,8.80730051 C13.7373951,7.56561851 13.7373951,6.241682 13.3684947,5 L28.7618914,5 C28.5749273,5.61792728 28.480567,6.26069733 28.481953,6.90690436 C28.4817312,7.79245502 28.6579185,8.66897527 29,9.48415393 L29,9.48415393 Z" id="Path" fill="#000000"></path>
                <path d="M64,27.5379174 C63.6273506,27.4696058 63.2493131,27.4358399 62.8705932,27.4370402 C61.9639384,27.436232 61.0672251,27.6280258 60.2385283,28 C57.9282317,18.8266836 50.4760772,11.6513865 41,9.48415393 C41.5949698,8.06361367 41.6803331,6.47745317 41.2413262,5 L56.634723,5 C56.4477589,5.61792728 56.3533986,6.26069733 56.3547846,6.90690436 C56.3541376,7.55068335 56.4473812,8.19103892 56.6315053,8.80730051 L49.7488808,8.80730051 C56.8631785,12.7675439 62.130526,19.5100453 64,27.5379174 Z" id="Path" fill="#000000"></path>
                <path d="M63.5,13 C59.9101491,13 57,10.0898509 57,6.5 C57,2.91014913 59.9101491,0 63.5,0 C67.0898509,0 70,2.91014913 70,6.5 C69.9946967,10.0876519 67.0876519,12.9946967 63.5,13 Z M63.5,3.75555556 C61.9842852,3.75555556 60.7555556,4.98428519 60.7555556,6.5 C60.7555556,8.01571481 61.9842852,9.24444444 63.5,9.24444444 C65.0157148,9.24444444 66.2444444,8.01571481 66.2444444,6.5 C66.2426756,4.98501846 65.0149815,3.75732436 63.5,3.75555556 Z" id="Shape" fill="#CE0033"></path>
                <path d="M34.5,13 C30.9101491,13 28,10.0898509 28,6.5 C28,2.91014913 30.9101491,0 34.5,0 C38.0898509,0 41,2.91014913 41,6.5 C40.9964612,10.088384 38.088384,12.9964612 34.5,13 L34.5,13 Z M34.5,3.75555556 C32.9842852,3.75555556 31.7555556,4.98428519 31.7555556,6.5 C31.7555556,8.01571481 32.9842852,9.24444444 34.5,9.24444444 C36.0157148,9.24444444 37.2444444,8.01571481 37.2444444,6.5 C37.2426756,4.98501846 36.0149815,3.75732436 34.5,3.75555556 Z" id="Shape" fill="#CE0033"></path>
                <path d="M63.500095,40 C60.8711288,40 58.5010276,38.416349 57.4949658,35.987501 C56.488904,33.5586529 57.0450083,30.7629279 58.9039681,28.9039681 C60.7629279,27.0450083 63.5586529,26.488904 65.987501,27.4949658 C68.416349,28.5010276 70,30.8711288 70,33.500095 C69.9964612,37.0884266 67.0884266,39.9964612 63.500095,40 L63.500095,40 Z M63.500095,30.7556907 C61.9844023,30.7556907 60.7556907,31.9844023 60.7556907,33.500095 C60.7556907,35.0157877 61.9844023,36.2444993 63.500095,36.2444993 C65.0157877,36.2444993 66.2444993,35.0157877 66.2444993,33.500095 C66.2409696,31.9858668 65.0143232,30.7592203 63.500095,30.7556907 L63.500095,30.7556907 Z" id="Shape" fill="#CE0033"></path>
                <path d="M6.500095,40 C3.87112883,40 1.5010276,38.416349 0.4949658,35.987501 C-0.511095998,33.5586529 0.0450082851,30.7629279 1.90396809,28.9039681 C3.7629279,27.0450083 6.55865292,26.488904 8.98750095,27.4949658 C11.416349,28.5010276 13,30.8711288 13,33.500095 C12.9964612,37.0884266 10.0884266,39.9964612 6.500095,40 L6.500095,40 Z M6.500095,30.7556907 C4.98440233,30.7556907 3.75569066,31.9844023 3.75569066,33.500095 C3.75569066,35.0157877 4.98440233,36.2444993 6.500095,36.2444993 C8.01578766,36.2444993 9.24449933,35.0157877 9.24449933,33.500095 C9.24273055,31.9851356 8.0150544,30.7574594 6.500095,30.7556907 L6.500095,30.7556907 Z" id="Shape" fill="#CE0033"></path>
                <path d="M6.5,13 C2.91014913,13 0,10.0898509 0,6.5 C0,2.91014913 2.91014913,0 6.5,0 C10.0898509,0 13,2.91014913 13,6.5 C12.9964612,10.088384 10.088384,12.9964612 6.5,13 L6.5,13 Z M6.5,3.75555556 C4.98428519,3.75555556 3.75555556,4.98428519 3.75555556,6.5 C3.75555556,8.01571481 4.98428519,9.24444444 6.5,9.24444444 C8.01571481,9.24444444 9.24444444,8.01571481 9.24444444,6.5 C9.24444444,4.98428519 8.01571481,3.75555556 6.5,3.75555556 L6.5,3.75555556 Z" id="Shape" fill="#CE0033"></path>
            </g>
        </g>
    </g>
</svg>