<?xml version="1.0" encoding="UTF-8"?>
<svg width="70px" height="70px" viewBox="0 0 70 70" version="1.1" xmlns="http://www.w3.org/2000/svg" xmlns:xlink="http://www.w3.org/1999/xlink">
    <title>ic/programme</title>
    <g id="ic/programme" stroke="none" stroke-width="1" fill="none" fill-rule="evenodd">
        <g transform="translate(0.000000, 8.000000)" fill-rule="nonzero" id="picto-fiche1">
            <g>
                <path d="M40.9783217,0 L40.9783217,3.68181818 L47.7125874,3.68181818 L40.7706294,10.6363636 C32.8161677,3.92672641 21.1838323,3.92672641 13.2293706,10.6363636 L15.8412587,13.2513986 C22.3412727,7.96501443 31.6587273,7.96501443 38.1587413,13.2513986 L29.891958,21.5181818 L32.4944056,24.1206294 L40.7611888,15.8538462 C46.047573,22.3538602 46.047573,31.6713147 40.7611888,38.1713287 L43.3762238,40.7832168 C50.085861,32.8287551 50.085861,21.1964197 43.3762238,13.241958 L50.3181818,6.28741259 L50.3181818,13.0216783 L54,13.0216783 L54,0 L40.9783217,0 Z M27,44.7262238 C22.9347126,44.7295035 18.9929981,43.3288943 15.8412587,40.7611888 L24.108042,32.4944056 L21.5055944,29.891958 L13.2388112,38.1587413 C7.95242702,31.6587273 7.95242702,22.3412727 13.2388112,15.8412587 L10.6363636,13.2293706 C3.92672641,21.1838323 3.92672641,32.8161677 10.6363636,40.7706294 L3.68181818,47.7125874 L3.68181818,40.9783217 L0,40.9783217 L0,54 L13.0216783,54 L13.0216783,50.3181818 L6.28741259,50.3181818 L13.2293706,43.3636364 C21.1838323,50.0732736 32.8161677,50.0732736 40.7706294,43.3636364 L38.1587413,40.7486014 C35.0087094,43.3208338 31.0668268,44.7259493 27,44.7262238 Z" id="Shape" fill="#CE0033"></path>
                <polygon id="Path" fill="#000000" points="24 21.4092155 21.4092155 24 3.66531784 6.25923509 3.66531784 12.9633207 0 12.9633207 0 0 12.9633207 0 12.9633207 3.66531784 6.25923509 3.66531784"></polygon>
                <polygon id="Path" fill="#000000" points="54 41.0366793 54 54 41.0366793 54 41.0366793 50.3346822 47.7407649 50.3346822 30 32.5907845 32.5907845 30 50.3346822 47.7407649 50.3346822 41.0366793"></polygon>
            </g>
        </g>
    </g>
</svg>