<?xml version="1.0" encoding="UTF-8"?>
<svg width="70px" height="70px" viewBox="0 0 70 70" version="1.1" xmlns="http://www.w3.org/2000/svg" xmlns:xlink="http://www.w3.org/1999/xlink">
    <title>ic/admission</title>
    <g id="ic/admission" stroke="none" stroke-width="1" fill="none" fill-rule="evenodd">
        <g transform="translate(0.000000, 8.000000)" fill-rule="nonzero" id="picto-fiche2">
            <g>
                <path d="M37.1195896,30.3778373 L37.1195896,30.3778373 C42.9366494,26.0227842 45.3119542,18.43497 43.0158731,11.5424002 C40.719792,4.64983042 34.2678329,0 27,0 C19.7321671,0 13.280208,4.64983042 10.9841269,11.5424002 C8.68804583,18.43497 11.0633506,26.0227842 16.8804104,30.3778373 L16.8804104,30.3778373 C7.56157291,30.3873762 0.00954310784,37.9360788 0,47.2508107 L0,54 L54,54 L54,47.2508107 C53.9904569,37.9360788 46.4384271,30.3873762 37.1195896,30.3778373 Z M13.4870151,16.8794586 C13.4870151,9.42450993 19.5331088,3.38107994 26.9913434,3.38107994 C34.449578,3.38107994 40.4956717,9.42450993 40.4956717,16.8794586 C40.4956717,24.3344073 34.449578,30.3778373 26.9913434,30.3778373 C19.5364051,30.3698889 13.494967,24.3311125 13.4870151,16.8794586 Z M50.6239179,50.6254053 L3.35876884,50.6254053 L3.35876884,47.2508107 C3.36830727,39.7998147 9.40881709,33.7619662 16.8630971,33.752432 L37.1195896,33.752432 C44.5745279,33.7603804 50.615966,39.7991568 50.6239179,47.2508107 L50.6239179,50.6254053 Z" id="Shape" fill="#CE0033"></path>
                <polygon id="Path" fill="#000000" points="35 15.3474576 35 18.6525424 28.6525424 18.6525424 28.6525424 25 25.3474576 25 25.3474576 18.6525424 19 18.6525424 19 15.3474576 25.3474576 15.3474576 25.3474576 9 28.6525424 9 28.6525424 15.3474576"></polygon>
            </g>
        </g>
    </g>
</svg>