<?xml version="1.0" encoding="UTF-8"?>
<svg width="70px" height="71px" viewBox="0 0 70 71" version="1.1" xmlns="http://www.w3.org/2000/svg" xmlns:xlink="http://www.w3.org/1999/xlink">
    <title>ic/prix</title>
    <g id="ic/prix" stroke="none" stroke-width="1" fill="none" fill-rule="evenodd">
        <g transform="translate(0.000000, 9.000000)" fill-rule="nonzero" id="picto-fiche4">
            <g transform="translate(0.000000, 0.219512)">
                <path d="M39.4103836,37.0886159 L39.4103836,37.0886159 C38.4183274,36.0893428 37.0771269,35.5139327 35.6692002,35.4835504 C35.6425917,34.0740121 35.0677654,32.7302876 34.0666639,31.737432 L34.0666639,31.737432 C33.0689098,30.7403345 31.7243224,30.1673293 30.313889,30.138161 C30.2653596,27.9445776 28.9124893,25.9915083 26.8756599,25.1745665 C24.8388305,24.3576247 22.5109397,24.8343957 20.9594817,26.3862481 L15.6012725,31.7229459 C14.0506163,33.275706 13.576814,35.6039656 14.3973433,37.6390418 C15.2178725,39.674118 17.174269,41.0229877 19.3685369,41.0665127 C19.4284026,43.2100936 20.7178631,45.1274859 22.6808317,45.9918038 C23.3231519,46.2905717 24.0212902,46.4505044 24.729644,46.4611551 C24.7704376,47.8528737 25.3416439,49.1763999 26.3263845,50.1609178 C27.3375608,51.1915354 28.719209,51.7747408 30.1631984,51.7804878 L30.2153605,51.7804878 C31.6649648,51.7831411 33.055209,51.2050492 34.0753576,50.175404 L39.4103836,44.8271173 C41.5298721,42.6827949 41.5298721,39.2329383 39.4103836,37.0886159 L39.4103836,37.0886159 Z M18.0007301,37.0596436 C17.6025536,36.6722284 17.37722,36.1408135 17.3755753,35.5853321 C17.3739485,35.0298507 17.5961484,34.4971186 17.9920365,34.1073662 L23.3357561,28.764874 C23.8637685,28.2369829 24.6333634,28.0308179 25.3546417,28.2240395 C26.07592,28.417261 26.6393026,28.9805141 26.8325685,29.7016268 C27.0258345,30.4227395 26.8196221,31.1921575 26.2916098,31.7200486 L20.9478901,37.0828214 C20.5533191,37.472537 20.0197807,37.6891482 19.4651499,37.6848634 C18.9105191,37.6804501 18.3804447,37.4554987 17.9920365,37.0596436 L18.0007301,37.0596436 Z M26.3205887,42.4195192 L26.2539371,42.4832582 C25.7012116,43.0672103 24.8432107,43.2452451 24.1036985,42.9294317 C23.2931702,42.6001596 22.7596118,41.8165685 22.7503812,40.9419318 C22.7512412,40.3871899 22.9709653,39.8551842 23.3618372,39.4614473 L28.6968632,34.130544 C29.5135963,33.3156947 30.8359837,33.3156947 31.6527168,34.130544 L31.6527168,34.130544 C32.0453039,34.521954 32.2654036,35.0538263 32.2641977,35.6081313 C32.2667537,36.1327356 32.0687541,36.638503 31.7106747,37.0219796 C31.6928934,37.0445746 31.6735251,37.0658748 31.6527168,37.0857187 L27.6101523,41.1186629 L26.3205887,42.4195192 Z M37.0138238,42.442697 L31.6787979,47.7764975 C31.2876638,48.1695409 30.7554308,48.3896887 30.2008711,48.3878249 L30.1805858,48.3878249 C29.6308553,48.3867908 29.1041954,48.1667913 28.7171485,47.7764975 C27.9344528,46.9925169 27.8963826,45.7352215 28.6302116,44.9053425 C28.6302116,44.9053425 28.6302116,44.9053425 28.6302116,44.9053425 L28.6591905,44.873473 L34.0405829,39.4933168 L34.1043366,39.4353722 C34.928853,38.6727961 36.2088731,38.6983906 37.0022323,39.4933168 L37.0022323,39.4933168 C37.8166358,40.3060001 37.8218143,41.6236403 37.0138238,42.442697 L37.0138238,42.442697 Z" id="Shape" fill="#000000"></path>
                <path d="M30,6.64250523 L27.5785972,9.05269891 L26.8340012,8.3171392 C21.5454988,3.01837731 12.9271747,2.97477153 7.58443539,8.21974295 C2.24169612,13.4647144 2.19772842,22.012099 7.48623079,27.3108609 L7.5741752,27.3980814 L14.0439524,33.7942528 C13.1890238,35.8483037 13.6656854,38.2108468 15.2517223,39.7804878 L15.2517223,39.7804878 L6.04687393,30.6717583 L5.16742982,29.7995531 C0.757708822,25.5517235 -1.00279188,19.2773414 0.560625399,13.381013 C2.12404267,7.48468464 6.76891364,2.88084849 12.715129,1.3338876 C18.6613444,-0.213073293 24.9867289,1.5367532 29.2671299,5.91276022 L30,6.64250523 Z" id="Path" fill="#CE0033"></path>
                <path d="M42,33.7804878 C41.9740914,33.757433 41.956819,33.7343783 41.9395466,33.7199691 L34,25.7804878 L34,25.7804878 L41.8992443,33.6882688 L41.9712127,33.7660786 L42,33.7804878 Z" id="Path" fill="#CE0033"></path>
                <polygon id="Path" fill="#CE0033" points="45 31.7804878 44.9664727 31.7517418 36.511499 23.7891116 34 26.1577785 34 26.1577785 36.5206428 23.7804878 44.9268495 31.7086229"></polygon>
                <polygon id="Path" fill="#000000" points="33.9395546 38.8377519 28.0318134 44.7454931 28 44.7804878 28.0795334 44.7073171 33.9331919 38.8504772 34 38.7804878"></polygon>
                <path d="M56,6.73440486 L55.9515738,6.7804878 C55.6545601,6.43486569 55.3373688,6.10153235 55,5.7804878 L56,6.73440486 Z" id="Path" fill="#000000"></path>
                <path d="M52,29.9471545 C52.0021045,32.9265898 49.519929,35.3578971 46.4212364,35.4115514 C46.3727624,38.3281618 43.9475875,40.6927477 40.914729,40.7804878 C40.9424264,39.3002458 40.3428513,37.8728047 39.2537497,36.8261042 L39.2537497,36.8261042 L39.2116234,36.7856057 L39.2116234,36.7856057 C40.0425415,37.619563 41.4193639,37.6480558 42.2868423,36.8492461 C43.1543207,36.0504364 43.1839588,34.7268172 42.3530408,33.8928599 C42.3530408,33.8928599 42.3530408,33.8928599 42.3530408,33.8928599 L42.3319776,33.8668251 L42.2567521,33.788721 L34,25.8510263 L36.4794329,23.4674037 L44.8264556,31.4803098 L44.8595548,31.5092372 C45.7342212,32.2756036 47.0860261,32.2279781 47.8999964,31.4021193 C48.7139668,30.5762606 48.6906319,29.2760132 47.8475121,28.4776396 L36.0882602,17.1727887 L38.5767201,14.7804878 L50.3419901,26.0911242 C50.8833915,26.6130597 51.3109992,27.2336195 51.5997607,27.9164469 C51.8668182,28.5625724 52.0026658,29.2518949 52,29.9471545 Z" id="Path" fill="#CE0033"></path>
                <path d="M42,33.7804878 C41.9740914,33.757433 41.956819,33.7343783 41.9395466,33.7199691 L34,25.7804878 L34,25.7804878 L41.8992443,33.6882688 L41.9712127,33.7660786 L42,33.7804878 Z" id="Path" fill="#CE0033"></path>
                <path d="M55.0313571,29.6522392 L49.8880156,34.7804878 L49.8091568,34.7019497 C51.787553,33.2008879 52.5145171,30.5680208 51.5849386,28.2705499 L52.6130228,27.2466455 C57.9086808,21.9741236 57.9099884,13.4243744 52.6159433,8.15024608 C47.3218982,2.87611776 38.7372476,2.87481538 33.4415894,8.14733712 L26.2041105,15.3670269 C25.6937314,15.8375642 25.3968745,16.4941955 25.3814597,17.1866857 C25.3660449,17.8791759 25.6333914,18.5482644 26.1223311,19.0408659 C26.6083143,19.558326 27.2860132,19.8547966 27.9974164,19.861153 C28.7979988,19.8741843 29.5699575,19.5647683 30.1382849,19.0030512 L36.5170799,12.6530984 L38.9324936,15.0616009 L36.5170799,17.4671946 L32.568302,21.4115537 C31.3720675,22.5961122 29.7544124,23.2620804 28.067513,23.2644717 L27.9390025,23.2644717 C25.5071583,23.222744 23.3374462,21.7330657 22.4332685,19.4843516 C21.5290907,17.2356374 22.066694,14.6662173 23.7974589,12.9643421 L31.0232551,5.73301699 C34.2067686,2.56199035 38.5248144,0.780487805 43.0273061,0.780487805 C47.5297978,0.780487805 51.8478435,2.56199035 55.0313571,5.73301699 C55.4383071,6.1383125 55.820918,6.55912171 56.1791898,6.99544462 C61.6838308,13.724445 61.1881165,23.5092316 55.0313571,29.6522392 Z" id="Path" fill="#000000"></path>
                <path d="M42,33.7804878 C41.9740914,33.757433 41.956819,33.7343783 41.9395466,33.7199691 L34,25.7804878 L34,25.7804878 L41.8992443,33.6882688 L41.9712127,33.7660786 L42,33.7804878 Z" id="Path" fill="#CE0033"></path>
                <path d="M31.9378092,36.8398937 L28,40.7804878 L31.9434629,36.8427226 C31.9637611,36.8233471 31.9826546,36.8025496 32,36.7804878 L31.9378092,36.8398937 Z" id="Path" fill="#000000"></path>
            </g>
        </g>
    </g>
</svg>